<svg width="16" height="16" viewBox="0 0 16 16" fill="none" xmlns="http://www.w3.org/2000/svg">
<path d="M4.47786 1.10591V6.13601C4.1404 6.0531 3.79123 6.02897 3.44561 6.06466C2.94728 6.18952 2.44894 6.90301 1.96841 7.08138C1.71303 5.94748 1.81762 4.76194 2.26756 3.69055C2.7175 2.61916 3.49029 1.71549 4.47786 1.10591ZM8.5891 0L11.1697 4.31661C11.3914 4.07378 11.6653 3.88469 11.9706 3.76366C12.4512 3.6388 13.2165 3.99554 13.7504 3.92419C13.4114 2.80905 12.7301 1.82949 11.8034 1.12493C10.8768 0.420365 9.75194 0.0267132 8.5891 0ZM0 16H16C14.5136 14.5884 12.574 13.7536 10.529 13.6455L8.16196 4.83389C8.98065 4.76254 9.97731 4.94091 10.4222 4.81605L7.55684 0.0178372C7.18392 0.0501182 6.81463 0.115783 6.45339 0.214047C6.07754 0.31032 5.71345 0.447906 5.36774 0.624303V6.15385C5.81268 6.01115 6.57798 5.40468 7.28988 5.08361L9.55017 13.5563C9.08743 13.5206 8.5891 13.5028 8.05517 13.5028C1.79043 13.5028 0 16 0 16Z" fill="black"/>
</svg>
