<svg width="19" height="19" viewBox="0 0 19 19" fill="none" xmlns="http://www.w3.org/2000/svg">
<path d="M9.5 3.54669C8.90187 3.54669 8.31718 3.72406 7.81986 4.05636C7.32254 4.38866 6.93492 4.86097 6.70603 5.41356C6.47714 5.96615 6.41725 6.57421 6.53394 7.16084C6.65063 7.74747 6.93865 8.28633 7.36159 8.70927C7.78453 9.1322 8.32338 9.42023 8.91001 9.53692C9.49664 9.6536 10.1047 9.59372 10.6573 9.36482C11.2099 9.13593 11.6822 8.74832 12.0145 8.251C12.3468 7.75367 12.5242 7.16898 12.5242 6.57086C12.5242 5.7688 12.2055 4.99959 11.6384 4.43245C11.0713 3.86531 10.3021 3.54669 9.5 3.54669ZM9.5 8.53947C9.11064 8.53947 8.73003 8.42401 8.4063 8.2077C8.08256 7.99139 7.83024 7.68393 7.68124 7.32421C7.53224 6.9645 7.49325 6.56867 7.56921 6.1868C7.64517 5.80493 7.83266 5.45416 8.10798 5.17884C8.3833 4.90352 8.73407 4.71603 9.11594 4.64007C9.49781 4.56411 9.89364 4.6031 10.2534 4.7521C10.6131 4.9011 10.9205 5.15342 11.1368 5.47716C11.3532 5.80089 11.4686 6.1815 11.4686 6.57086C11.4672 7.09205 11.2592 7.59142 10.8902 7.95947C10.5211 8.32751 10.0212 8.53419 9.5 8.53419V8.53947Z" fill="black"/>
<path d="M15.712 7.11975C15.3538 7.1098 14.9987 7.0512 14.6564 6.94558V7.24642C14.6564 9.3892 13.3792 11.2945 12.445 12.6878L12.255 12.9675C11.3472 14.3292 10.1439 15.8545 9.49474 16.6092C8.87196 15.8545 7.64224 14.3292 6.73446 12.9675L6.55502 12.6667C5.62085 11.2734 4.33835 9.36808 4.33835 7.22531C4.34155 6.33785 4.57374 5.46625 5.01247 4.69481C5.45119 3.92338 6.08159 3.27823 6.84267 2.8218C7.60376 2.36536 8.46976 2.11308 9.35691 2.08936C10.244 2.06564 11.1223 2.27129 11.9067 2.68642C11.9487 2.32353 12.0411 1.96826 12.1811 1.63086C11.2334 1.17311 10.1847 0.964124 9.13383 1.02357C8.08299 1.08302 7.06457 1.40895 6.17448 1.97067C5.28438 2.5324 4.5519 3.31142 4.04601 4.23439C3.54012 5.15737 3.27747 6.19391 3.28279 7.24642C3.28279 9.71114 4.66557 11.7748 5.67891 13.2789L5.86363 13.5534C6.87183 15.0146 7.9534 16.4238 9.10418 17.7756L9.50529 18.2453L9.9064 17.7756C11.057 16.4237 12.1386 15.0145 13.147 13.5534L13.3317 13.2736C14.3397 11.7695 15.7225 9.71114 15.7225 7.24642C15.7172 7.2042 15.712 7.16197 15.712 7.11975Z" fill="black"/>
<path d="M15.8333 5.80555C17.2908 5.80555 18.4722 4.62408 18.4722 3.16666C18.4722 1.70924 17.2908 0.527771 15.8333 0.527771C14.3759 0.527771 13.1945 1.70924 13.1945 3.16666C13.1945 4.62408 14.3759 5.80555 15.8333 5.80555Z" fill="black"/>
</svg>
