<svg width="15" height="15" viewBox="0 0 15 15" fill="none" xmlns="http://www.w3.org/2000/svg">
<path d="M14.6882 3.65402C14.6375 3.34727 14.356 3.13377 14.04 3.18527L13.1427 3.33627L13.86 1.52577C14.0257 1.15527 13.9482 1.09052 13.8405 1.03702C13.7332 0.982766 13.6365 0.960766 13.4712 1.33102L12.6337 3.20952L12.4095 3.24702L12.3757 3.03927C12.666 2.80602 12.9205 2.47102 12.951 2.10652C13.0903 2.04777 13.2408 1.91177 13.1923 1.59877C13.141 1.27077 12.974 1.21977 12.877 1.21902C12.704 0.246766 12.3645 -0.127984 11.2308 0.0380164C10.088 0.205516 9.834 0.690016 9.96225 1.68252C9.9255 1.70102 9.89725 1.72502 9.87875 1.74652C9.80775 1.82977 9.78625 1.95352 9.813 2.12552C9.86275 2.44527 10.0577 2.52277 10.197 2.53602C10.3387 2.87927 10.6892 3.12302 11.043 3.25552L11.078 3.47077L10.8532 3.50852L9.46975 2.00327C9.19725 1.70677 9.113 1.75952 9.028 1.84602C8.94225 1.93202 8.8895 2.01802 9.1625 2.31477L10.638 4.02727L11.0095 5.26327L10.7898 5.30002C10.7222 5.30002 10.6625 5.24652 10.651 5.17552L10.4275 3.79477L9.2185 4.00002C8.919 4.05127 8.71325 4.33527 8.75325 4.63752L8.8325 6.31777L8.5135 6.43927C8.4747 6.39885 8.4253 6.37018 8.37095 6.35656C8.31661 6.34294 8.25952 6.34492 8.20625 6.36227C8.14855 6.38223 8.09803 6.41879 8.06102 6.46736C8.02402 6.51592 8.00218 6.57434 7.99825 6.63527L7.608 6.78377L6.874 5.31952C6.84092 5.25277 6.79486 5.19329 6.73852 5.14457C6.68217 5.09585 6.61667 5.05885 6.54585 5.03576C6.47503 5.01266 6.40031 5.00393 6.32607 5.01007C6.25183 5.01621 6.17956 5.0371 6.1135 5.07152L5.30175 5.49452L5.60025 6.09102C5.55325 6.21427 5.53175 6.39327 5.60625 6.65502L5.71025 7.01902L5.678 7.03552L5.25275 5.78502L5.45025 3.54552C5.49825 3.14127 5.4045 3.10352 5.28575 3.08627C5.16775 3.06852 5.06875 3.07627 5.022 3.48027L4.78325 5.53002L4.5795 5.63627L4.47075 5.41952C4.66525 5.13052 4.798 4.77327 4.7385 4.44052C4.85825 4.34777 4.969 4.17777 4.8415 3.88777C4.74175 3.66077 4.5905 3.56527 4.4405 3.60327C4.02375 2.70677 3.59975 2.43077 2.5455 2.88252C1.48375 3.33727 1.36275 3.87102 1.7415 4.79752C1.71823 4.81757 1.6986 4.84151 1.6835 4.86827C1.629 4.96802 1.63775 5.09752 1.71075 5.26352C1.82175 5.51552 1.98925 5.56852 2.1105 5.56852C2.1355 5.56852 2.161 5.56602 2.18725 5.56177C2.43525 5.88927 2.8845 6.02502 3.2725 6.04627L3.37975 6.26102L3.17625 6.36727L1.41025 5.36227C1.06175 5.16377 0.9975 5.24127 0.94275 5.34952C0.8865 5.45802 0.862 5.55652 1.20975 5.75477L3.09575 6.90852L3.84625 7.99177L3.668 8.08502C3.65149 8.09314 3.63354 8.09793 3.61518 8.0991C3.59681 8.10028 3.5784 8.09783 3.56098 8.09189C3.54357 8.08594 3.5275 8.07662 3.51369 8.06446C3.49988 8.0523 3.4886 8.03754 3.4805 8.02102L2.85425 6.77227L1.7615 7.34327C1.507 7.47802 1.435 7.73002 1.46625 8.09727C1.46625 8.09727 1.56775 9.84327 1.623 10.5118C1.635 10.6573 1.8005 10.7355 1.93075 10.7843C1.227 11.34 0.5755 11.9235 0 12.528V14.485C0.606787 13.9006 1.23211 13.3357 1.875 12.7913V14.4998H2.8125V12.0295C3.67775 11.3558 4.61275 10.7068 5.625 10.1175V14.4998H6.5625V9.60177C7.46845 9.13055 8.40861 8.72824 9.375 8.39827V14.4998H10.3125V8.10427C11.2343 7.84072 12.1744 7.64568 13.125 7.52077V14.4998H14.0625V7.42202C14.3745 7.39496 14.6871 7.37529 15 7.36302V6.12977L14.6882 3.65402ZM2.34825 5.35402L2.2955 5.26677L2.19925 5.30102C2.1665 5.31252 2.1365 5.31852 2.11075 5.31852C2.08275 5.31852 2.00825 5.31852 1.94 5.16302C1.911 5.09702 1.9015 5.05377 1.89925 5.02677C1.91525 5.04527 1.9305 5.06027 1.94575 5.07227C2.02525 5.13402 2.12125 5.14352 2.13975 5.14477L2.382 5.16077L2.2545 4.95427C2.254 4.95327 2.19475 4.85652 2.13875 4.71602C2.0905 4.58252 1.9775 4.26977 2.00675 4.21677C2.0185 4.19527 2.14525 4.16702 2.22925 4.14827C2.3985 4.11052 2.65425 4.05327 2.98325 3.90877C3.31225 3.76427 3.52725 3.61427 3.66975 3.51527C3.75275 3.45752 3.83875 3.39752 3.87 3.39752C3.922 3.39752 4.09375 3.72577 4.14825 3.83002C4.21525 3.96902 4.24625 4.07777 4.2465 4.07877L4.31275 4.31427L4.46475 4.12252C4.47625 4.10802 4.53375 4.03102 4.5425 3.92902C4.54366 3.90791 4.54291 3.88674 4.54025 3.86577C4.5595 3.88652 4.58525 3.92377 4.61325 3.98802C4.68625 4.15377 4.63925 4.21977 4.53925 4.27252L4.449 4.32027L4.47775 4.41827C4.6365 4.95902 4.0625 5.61552 3.787 5.73627C3.69575 5.77652 3.545 5.80052 3.3835 5.80052C3.0305 5.80077 2.54725 5.68377 2.34825 5.35402ZM3.602 6.14552L3.55025 6.04252C3.682 6.03052 3.79875 6.00477 3.88725 5.96552C4.01525 5.90927 4.16325 5.79202 4.301 5.63827L4.358 5.75202C4.418 5.87302 4.29775 6.05902 4.09 6.16777C3.88125 6.27652 3.6625 6.26677 3.602 6.14552ZM3.6185 10.7298C3.56027 10.76 3.49659 10.7782 3.4312 10.7834C3.36582 10.7886 3.30005 10.7807 3.23776 10.7602C3.17548 10.7396 3.11793 10.7068 3.06851 10.6637C3.0191 10.6205 2.9788 10.5679 2.95 10.509C2.94439 10.4967 2.94109 10.4835 2.94025 10.47L3.80825 10.0168C3.81839 10.0255 3.82693 10.0359 3.8335 10.0475C3.95875 10.2963 3.8615 10.6018 3.6185 10.7298ZM7.0915 8.90602C7.03324 8.93613 6.96954 8.95428 6.90416 8.95941C6.83877 8.96454 6.77303 8.95654 6.71078 8.93587C6.64854 8.91521 6.59106 8.88231 6.54172 8.8391C6.49238 8.79589 6.45219 8.74324 6.4235 8.68427C6.41875 8.67502 6.41825 8.66527 6.41625 8.65552L7.28825 8.20002C7.2945 8.20727 7.30225 8.21377 7.30675 8.22302C7.36701 8.34245 7.37823 8.4807 7.33802 8.60829C7.29781 8.73588 7.20935 8.84271 7.0915 8.90602ZM2.15275 10.3173C2.1385 10.3245 2.12975 10.3378 2.0935 10.3138L1.94725 7.91002C1.9455 7.84177 1.96175 7.80352 1.9945 7.78602L2.6355 7.45152L3.034 8.24602C3.07175 8.32185 3.1242 8.38943 3.18831 8.4448C3.25242 8.50017 3.3269 8.54224 3.40742 8.56855C3.48795 8.59486 3.5729 8.6049 3.65733 8.59807C3.74177 8.59124 3.824 8.56768 3.89925 8.52877L6.09125 7.38427C6.40425 7.22277 6.52975 6.83177 6.37075 6.51227L5.9695 5.71052L6.34475 5.51502C6.3695 5.50152 6.4075 5.50502 6.4275 5.54452L7.404 7.49302C7.4185 7.52177 2.15275 10.3173 2.15275 10.3173ZM7.89425 7.38902C7.89225 7.38077 7.743 7.05252 7.743 7.05252L8.129 6.90602C8.205 6.96102 8.30125 6.98402 8.39625 6.95227C8.4995 6.91727 8.567 6.83052 8.59125 6.73027L8.84725 6.63277L8.8565 6.82777L8.85975 6.85652C8.86925 6.91427 8.8885 6.96752 8.91325 7.01777C8.57074 7.13356 8.23098 7.25735 7.89425 7.38902ZM13.1388 3.34652L13.2452 4.00102C13.1672 4.10477 13.0993 4.26652 13.093 4.52802L13.0833 4.91402L13.0312 4.92277L13.0285 3.62527L13.1388 3.34652ZM10.406 2.37602L10.3775 2.27802L10.2458 2.28752C10.1713 2.28752 10.0893 2.27177 10.0605 2.08627C10.0516 2.03955 10.05 1.99171 10.056 1.94452C10.0667 1.96652 10.0777 1.98427 10.0892 1.99952C10.1497 2.08027 10.2405 2.11427 10.2583 2.12002L10.4878 2.19752L10.418 1.96552C10.4178 1.96452 10.3853 1.85602 10.3675 1.70527C10.3553 1.56452 10.3263 1.23402 10.3678 1.18902C10.3682 1.18852 10.3807 1.17602 10.473 1.17602C10.51 1.17602 10.5525 1.17777 10.6005 1.17977C10.667 1.18252 10.7435 1.18527 10.8313 1.18527C11.019 1.18527 11.202 1.17077 11.3907 1.14152C11.7457 1.08602 11.992 0.996516 12.155 0.937266C12.2483 0.903266 12.3287 0.874016 12.3698 0.874016C12.426 0.874016 12.5013 1.20802 12.5367 1.36452C12.5658 1.51577 12.568 1.62927 12.568 1.63027L12.5723 1.87427L12.7677 1.72877C12.7828 1.71752 12.858 1.65777 12.8923 1.56152C12.8988 1.54149 12.9036 1.5209 12.9065 1.50002C12.9207 1.52627 12.9355 1.57002 12.9458 1.63677C12.9735 1.81577 12.911 1.86727 12.8013 1.89252L12.7017 1.91552L12.7045 2.01752C12.7192 2.58102 11.996 3.06827 11.699 3.11452C11.6706 3.11873 11.6419 3.12066 11.6132 3.12027C11.2572 3.12052 10.5505 2.87177 10.406 2.37602ZM12.1628 3.28802C12.1845 3.42227 12.0135 3.56277 11.7828 3.60152C11.5525 3.64027 11.3482 3.56352 11.325 3.43052L11.309 3.33177C11.4085 3.35514 11.5103 3.36804 11.6125 3.37027C11.658 3.37027 11.6997 3.36727 11.7367 3.36152C11.8555 3.34302 12.0002 3.28427 12.1482 3.19677L12.1628 3.28802ZM10.0988 7.69352C9.84375 7.73602 9.604 7.57052 9.5405 7.32102L10.51 7.15702C10.528 7.41477 10.353 7.64927 10.0988 7.69352ZM13.858 7.07252C13.5988 7.11552 13.3545 6.94427 13.296 6.68602L14.2685 6.52152C14.295 6.78502 14.1172 7.02702 13.858 7.07252ZM14.4925 5.97652L9.42575 6.83327L9.41575 6.83427C9.40168 6.83375 9.38817 6.82866 9.37725 6.81978C9.36633 6.81089 9.35861 6.79869 9.35525 6.78502L9.25225 4.60227L9.24925 4.57427C9.243 4.53577 9.267 4.49927 9.3025 4.49352L10.0145 4.37252L10.1578 5.25627C10.215 5.60677 10.5435 5.85002 10.896 5.79177L13.3255 5.38102C13.6735 5.32302 13.9108 4.98827 13.8542 4.63452L13.7105 3.74852L14.1327 3.67802C14.1587 3.67802 14.1888 3.69802 14.1947 3.73527L14.5452 5.89452C14.5518 5.93302 14.5278 5.97052 14.4925 5.97652Z" fill="black"/>
</svg>
