<svg width="140" height="20" viewBox="0 0 140 20" fill="none" xmlns="http://www.w3.org/2000/svg">
<path d="M19.3536 7.04257L13.358 6.1301L10.6778 0.440169C10.6046 0.284382 10.4841 0.158269 10.3354 0.0816118C9.96227 -0.111267 9.50887 0.0494654 9.32232 0.440169L6.64213 6.1301L0.646516 7.04257C0.481218 7.0673 0.330088 7.1489 0.214379 7.27254C0.0744931 7.4231 -0.00259025 7.62566 6.6464e-05 7.8357C0.00272317 8.04575 0.0849026 8.24609 0.228547 8.39272L4.56645 12.8215L3.5416 19.0753C3.51757 19.2207 3.53294 19.3703 3.58598 19.5071C3.63901 19.6439 3.72759 19.7624 3.84166 19.8492C3.95573 19.9359 4.09074 19.9875 4.23137 19.998C4.37199 20.0085 4.51262 19.9775 4.63729 19.9086L10 16.9561L15.3628 19.9086C15.5092 19.9902 15.6792 20.0174 15.8422 19.9877C16.2531 19.9135 16.5293 19.5055 16.4585 19.0753L15.4336 12.8215L19.7715 8.39272C19.8896 8.27156 19.9675 8.1133 19.9912 7.9402C20.0549 7.50746 19.7668 7.10686 19.3536 7.04257ZM13.6083 12.1984L14.4607 17.3987L10 14.9457L5.53935 17.4012L6.39182 12.2008L2.78359 8.51636L7.77088 7.75721L10 3.02673L12.2292 7.75721L17.2165 8.51636L13.6083 12.1984Z" fill="black"/>
<path d="M49.3536 7.04257L43.358 6.1301L40.6778 0.440169C40.6046 0.284382 40.4841 0.158269 40.3354 0.0816118C39.9623 -0.111267 39.5089 0.0494654 39.3223 0.440169L36.6421 6.1301L30.6465 7.04257C30.4812 7.0673 30.3301 7.1489 30.2144 7.27254C30.0745 7.4231 29.9974 7.62566 30.0001 7.8357C30.0027 8.04575 30.0849 8.24609 30.2285 8.39272L34.5665 12.8215L33.5416 19.0753C33.5176 19.2207 33.5329 19.3703 33.586 19.5071C33.639 19.6439 33.7276 19.7624 33.8417 19.8492C33.9557 19.9359 34.0907 19.9875 34.2314 19.998C34.372 20.0085 34.5126 19.9775 34.6373 19.9086L40 16.9561L45.3628 19.9086C45.5092 19.9902 45.6792 20.0174 45.8422 19.9877C46.2531 19.9135 46.5293 19.5055 46.4585 19.0753L45.4336 12.8215L49.7715 8.39272C49.8896 8.27156 49.9675 8.1133 49.9912 7.9402C50.0549 7.50746 49.7668 7.10686 49.3536 7.04257ZM43.6083 12.1984L44.4607 17.3987L40 14.9457L35.5394 17.4012L36.3918 12.2008L32.7836 8.51636L37.7709 7.75721L40 3.02673L42.2292 7.75721L47.2165 8.51636L43.6083 12.1984Z" fill="black"/>
<path d="M79.3536 7.04257L73.358 6.1301L70.6778 0.440169C70.6046 0.284382 70.4841 0.158269 70.3354 0.0816118C69.9623 -0.111267 69.5089 0.0494654 69.3223 0.440169L66.6421 6.1301L60.6465 7.04257C60.4812 7.0673 60.3301 7.1489 60.2144 7.27254C60.0745 7.4231 59.9974 7.62566 60.0001 7.8357C60.0027 8.04575 60.0849 8.24609 60.2285 8.39272L64.5665 12.8215L63.5416 19.0753C63.5176 19.2207 63.5329 19.3703 63.586 19.5071C63.639 19.6439 63.7276 19.7624 63.8417 19.8492C63.9557 19.9359 64.0907 19.9875 64.2314 19.998C64.372 20.0085 64.5126 19.9775 64.6373 19.9086L70 16.9561L75.3628 19.9086C75.5092 19.9902 75.6792 20.0174 75.8422 19.9877C76.2531 19.9135 76.5293 19.5055 76.4585 19.0753L75.4336 12.8215L79.7715 8.39272C79.8896 8.27156 79.9675 8.1133 79.9912 7.9402C80.0549 7.50746 79.7668 7.10686 79.3536 7.04257ZM73.6083 12.1984L74.4607 17.3987L70 14.9457L65.5394 17.4012L66.3918 12.2008L62.7836 8.51636L67.7709 7.75721L70 3.02673L72.2292 7.75721L77.2165 8.51636L73.6083 12.1984Z" fill="black"/>
<path d="M109.354 7.04257L103.358 6.1301L100.678 0.440169C100.605 0.284382 100.484 0.158269 100.335 0.0816118C99.9623 -0.111267 99.5089 0.0494654 99.3223 0.440169L96.6421 6.1301L90.6465 7.04257C90.4812 7.0673 90.3301 7.1489 90.2144 7.27254C90.0745 7.4231 89.9974 7.62566 90.0001 7.8357C90.0027 8.04575 90.0849 8.24609 90.2285 8.39272L94.5665 12.8215L93.5416 19.0753C93.5176 19.2207 93.5329 19.3703 93.586 19.5071C93.639 19.6439 93.7276 19.7624 93.8417 19.8492C93.9557 19.9359 94.0907 19.9875 94.2314 19.998C94.372 20.0085 94.5126 19.9775 94.6373 19.9086L100 16.9561L105.363 19.9086C105.509 19.9902 105.679 20.0174 105.842 19.9877C106.253 19.9135 106.529 19.5055 106.458 19.0753L105.434 12.8215L109.772 8.39272C109.89 8.27156 109.968 8.1133 109.991 7.9402C110.055 7.50746 109.767 7.10686 109.354 7.04257ZM103.608 12.1984L104.461 17.3987L100 14.9457L95.5394 17.4012L96.3918 12.2008L92.7836 8.51636L97.7709 7.75721L100 3.02673L102.229 7.75721L107.217 8.51636L103.608 12.1984Z" fill="black"/>
<path d="M139.354 7.04257L133.358 6.1301L130.678 0.440169C130.605 0.284382 130.484 0.158269 130.335 0.0816118C129.962 -0.111267 129.509 0.0494654 129.322 0.440169L126.642 6.1301L120.647 7.04257C120.481 7.0673 120.33 7.1489 120.214 7.27254C120.074 7.4231 119.997 7.62566 120 7.8357C120.003 8.04575 120.085 8.24609 120.229 8.39272L124.566 12.8215L123.542 19.0753C123.518 19.2207 123.533 19.3703 123.586 19.5071C123.639 19.6439 123.728 19.7624 123.842 19.8492C123.956 19.9359 124.091 19.9875 124.231 19.998C124.372 20.0085 124.513 19.9775 124.637 19.9086L130 16.9561L135.363 19.9086C135.509 19.9902 135.679 20.0174 135.842 19.9877C136.253 19.9135 136.529 19.5055 136.458 19.0753L135.434 12.8215L139.772 8.39272C139.89 8.27156 139.968 8.1133 139.991 7.9402C140.055 7.50746 139.767 7.10686 139.354 7.04257ZM133.608 12.1984L134.461 17.3987L130 14.9457L125.539 17.4012L126.392 12.2008L122.784 8.51636L127.771 7.75721L130 3.02673L132.229 7.75721L137.217 8.51636L133.608 12.1984Z" fill="black"/>
</svg>
